# xmcd CD database file
#
# Track frame offsets:
#	150
#	20184
#	42105
#	49647
#	79708
#	106544
#	172732
#	198481
#	216756
#
# Disc length: 3162 seconds
#
# Revision: 0
# Processed by: cddbd v1.5.2PL0 Copyright (c) Steve Scherf et al.
# Submitted via: CDex 1.51
#
DISCID=690c5809
DTITLE=Masada - Live In Vienna - 4/13/97
DYEAR=1900
DGENRE=Jazz
TTITLE0=Lakum
TTITLE1=Ner Tamid
TTITLE2=Karet
TTITLE3=Tevel
TTITLE4=Jachin
TTITLE5=Shechem
TTITLE6=Khebar
TTITLE7=Elilah
TTITLE8=Shamor
EXTD=
EXTT0=
EXTT1=
EXTT2=
EXTT3=
EXTT4=
EXTT5=
EXTT6=
EXTT7=
EXTT8=
PLAYORDER=
